<svg data-v-423bf9ae="" xmlns="http://www.w3.org/2000/svg" viewBox="0 0 241.17935067822955 60" class="font"><!----><!----><!----><g data-v-423bf9ae="" id="f3c73dd1-35a6-4fbf-80e9-db87ab1ea176" fill="black" transform="matrix(4.914004898652382,0,0,4.914004898652382,-3.0958216640486427,-34.25061593262514)"><path d="M4.52 19.18L4.52 19.18Q2.69 19.18 1.66 18.21L1.66 18.21L1.66 18.21Q0.63 17.25 0.63 15.54L0.63 15.54L0.63 15.54Q0.63 14.07 1.32 12.91L1.32 12.91L1.32 12.91Q2.00 11.75 3.23 11.09L3.23 11.09L3.23 11.09Q4.45 10.43 6.01 10.43L6.01 10.43L6.01 10.43Q7.21 10.43 7.92 10.88L7.92 10.88L7.92 10.88Q8.64 11.33 8.64 12.07L8.64 12.07L8.64 12.07Q8.64 12.67 8.23 13.06L8.23 13.06L8.23 13.06Q7.83 13.44 7.18 13.44L7.18 13.44L7.18 13.44Q6.58 13.44 6.08 13.10L6.08 13.10L6.08 13.10Q5.59 12.75 5.31 12.15L5.31 12.15L5.31 12.15Q4.77 12.35 4.34 12.86L4.34 12.86L4.34 12.86Q3.91 13.37 3.65 14.08L3.65 14.08L3.65 14.08Q3.40 14.80 3.40 15.57L3.40 15.57L3.40 15.57Q3.40 16.59 3.75 17.16L3.75 17.16L3.75 17.16Q4.10 17.74 4.73 17.74L4.73 17.74L4.73 17.74Q5.21 17.74 5.63 17.46L5.63 17.46L5.63 17.46Q6.05 17.18 6.30 16.70L6.30 16.70L6.30 16.70Q6.55 16.23 6.57 15.65L6.57 15.65L6.57 15.65Q7.41 15.65 7.85 15.96L7.85 15.96L7.85 15.96Q8.29 16.27 8.29 16.86L8.29 16.86L8.29 16.86Q8.29 17.50 7.78 18.03L7.78 18.03L7.78 18.03Q7.28 18.56 6.42 18.87L6.42 18.87L6.42 18.87Q5.56 19.18 4.52 19.18L4.52 19.18ZM11.49 19.18L11.49 19.18Q10.65 19.18 10.28 18.69L10.28 18.69L10.28 18.69Q9.91 18.20 9.91 17.16L9.91 17.16L9.91 17.16Q9.91 16.60 10.14 15.20L10.14 15.20L10.14 15.20Q10.36 13.79 10.77 11.56L10.77 11.56L10.77 11.56Q10.84 11.10 10.91 10.75L10.91 10.75L10.91 10.75Q10.98 10.39 11.02 10.12L11.02 10.12L10.23 9.00L10.23 9.00Q10.86 8.54 11.55 8.26L11.55 8.26L11.55 8.26Q12.24 7.98 12.85 7.98L12.85 7.98L12.85 7.98Q13.51 7.98 13.78 8.21L13.78 8.21L13.78 8.21Q14.04 8.44 14.04 8.97L14.04 8.97L14.04 8.97Q14.04 9.34 13.94 9.91L13.94 9.91L13.94 9.91Q13.83 10.49 13.61 11.48L13.61 11.48L13.61 11.48Q13.23 13.13 13.01 14.43L13.01 14.43L13.01 14.43Q12.80 15.72 12.80 16.98L12.80 16.98L12.80 16.98Q12.80 17.63 12.90 17.92L12.90 17.92L12.90 17.92Q13.01 18.21 13.23 18.49L13.23 18.49L13.23 18.49Q12.85 18.83 12.38 19.01L12.38 19.01L12.38 19.01Q11.91 19.18 11.49 19.18L11.49 19.18ZM17.72 9.66L17.72 9.66Q17.07 9.66 16.65 9.35L16.65 9.35L16.65 9.35Q16.24 9.03 16.24 8.50L16.24 8.50L16.24 8.50Q16.24 8.02 16.53 7.67L16.53 7.67L16.53 7.67Q16.83 7.32 17.27 7.15L17.27 7.15L17.27 7.15Q17.71 6.97 18.13 6.97L18.13 6.97L18.13 6.97Q18.79 6.97 19.20 7.29L19.20 7.29L19.20 7.29Q19.61 7.60 19.61 8.13L19.61 8.13L19.61 8.13Q19.61 8.79 19.05 9.23L19.05 9.23L19.05 9.23Q18.49 9.66 17.72 9.66L17.72 9.66ZM16.88 19.18L16.88 19.18Q16.02 19.18 15.62 18.75L15.62 18.75L15.62 18.75Q15.23 18.31 15.23 17.44L15.23 17.44L15.23 17.44Q15.23 16.53 16.13 12.66L16.13 12.66L15.34 11.48L15.34 11.48Q16.02 11.00 16.74 10.72L16.74 10.72L16.74 10.72Q17.46 10.43 18.10 10.43L18.10 10.43L18.10 10.43Q18.68 10.43 18.91 10.68L18.91 10.68L18.91 10.68Q19.15 10.92 19.15 11.47L19.15 11.47L19.15 11.47Q19.15 11.65 19.05 12.13L19.05 12.13L19.05 12.13Q18.94 12.61 18.82 13.19L18.82 13.19L18.82 13.19Q18.49 14.52 18.30 15.51L18.30 15.51L18.30 15.51Q18.12 16.49 18.12 17.22L18.12 17.22L18.12 17.22Q18.12 18.12 18.55 18.49L18.55 18.49L18.55 18.49Q17.77 19.18 16.88 19.18L16.88 19.18ZM22.16 19.18L22.16 19.18Q21.31 19.18 20.92 18.75L20.92 18.75L20.92 18.75Q20.52 18.31 20.52 17.44L20.52 17.44L20.52 17.44Q20.52 16.88 20.81 15.27L20.81 15.27L20.81 15.27Q21.10 13.66 21.41 12.33L21.41 12.33L20.68 11.21L20.68 11.21Q22.06 10.43 23.27 10.43L23.27 10.43L23.27 10.43Q23.84 10.43 24.13 10.71L24.13 10.71L24.13 10.71Q24.42 10.99 24.42 11.49L24.42 11.49L24.42 11.49Q24.42 11.84 24.32 12.23L24.32 12.23L24.32 12.23Q24.23 12.61 24.09 12.92L24.09 12.92L24.23 12.99L24.23 12.99Q25.73 10.43 28.04 10.43L28.04 10.43L28.04 10.43Q28.90 10.43 29.32 10.84L29.32 10.84L29.32 10.84Q29.74 11.26 29.74 12.12L29.74 12.12L29.74 12.12Q29.74 12.60 29.64 13.12L29.64 13.12L29.64 13.12Q29.54 13.64 29.34 14.50L29.34 14.50L29.34 14.50Q29.12 15.44 29.02 16.04L29.02 16.04L29.02 16.04Q28.91 16.63 28.91 17.22L28.91 17.22L28.91 17.22Q28.91 18.09 29.20 18.49L29.20 18.49L29.20 18.49Q28.46 19.18 27.66 19.18L27.66 19.18L27.66 19.18Q26.81 19.18 26.42 18.75L26.42 18.75L26.42 18.75Q26.03 18.31 26.03 17.44L26.03 17.44L26.03 17.44Q26.03 16.87 26.15 16.27L26.15 16.27L26.15 16.27Q26.28 15.67 26.52 14.90L26.52 14.90L26.52 14.90Q26.70 14.25 26.78 13.88L26.78 13.88L26.78 13.88Q26.87 13.51 26.87 13.22L26.87 13.22L26.87 13.22Q26.87 12.63 26.39 12.63L26.39 12.63L26.39 12.63Q25.86 12.63 25.14 13.24L25.14 13.24L25.14 13.24Q24.43 13.85 23.92 14.90L23.92 14.90L23.92 14.90Q23.41 15.96 23.41 17.22L23.41 17.22L23.41 17.22Q23.41 18.09 23.70 18.49L23.70 18.49L23.70 18.49Q22.96 19.18 22.16 19.18L22.16 19.18ZM31.70 16.17L31.71 14.36L31.71 14.36Q31.71 13.10 31.56 12.31L31.56 12.31L31.56 12.31Q31.40 11.52 30.93 11.03L30.93 11.03L30.93 11.03Q31.70 10.43 32.59 10.43L32.59 10.43L32.59 10.43Q33.53 10.43 34.01 11.20L34.01 11.20L34.01 11.20Q34.48 11.97 34.48 13.87L34.48 13.87L34.48 13.87Q34.48 15.97 34.41 17.47L34.41 17.47L34.55 17.47L34.55 17.47Q35.73 15.69 36.37 14.24L36.37 14.24L36.37 14.24Q37.02 12.78 37.02 12.08L37.02 12.08L37.02 12.08Q37.02 11.55 36.75 11.03L36.75 11.03L36.75 11.03Q37.10 10.77 37.63 10.60L37.63 10.60L37.63 10.60Q38.15 10.43 38.63 10.43L38.63 10.43L38.63 10.43Q39.86 10.43 39.86 11.61L39.86 11.61L39.86 11.61Q39.86 12.04 39.67 12.61L39.67 12.61L39.67 12.61Q39.48 13.19 38.98 14.20L38.98 14.20L38.98 14.20Q38.49 15.20 37.46 17.12L37.46 17.12L37.79 17.86L37.79 17.86Q37.14 18.44 36.16 18.81L36.16 18.81L36.16 18.81Q35.18 19.18 34.31 19.18L34.31 19.18L34.31 19.18Q32.91 19.18 32.30 18.48L32.30 18.48L32.30 18.48Q31.70 17.78 31.70 16.17L31.70 16.17ZM47.88 11.49L47.88 11.49Q48.69 11.49 49.20 12.15L49.20 12.15L49.20 12.15Q49.71 12.80 49.71 13.83L49.71 13.83L49.71 13.83Q49.71 15.30 49.04 16.53L49.04 16.53L49.04 16.53Q48.37 17.75 47.21 18.47L47.21 18.47L47.21 18.47Q46.06 19.18 44.67 19.18L44.67 19.18L44.67 19.18Q43.51 19.18 42.64 18.73L42.64 18.73L42.64 18.73Q41.78 18.27 41.31 17.44L41.31 17.44L41.31 17.44Q40.84 16.60 40.84 15.50L40.84 15.50L40.84 15.50Q40.84 14.03 41.52 12.88L41.52 12.88L41.52 12.88Q42.21 11.73 43.42 11.08L43.42 11.08L43.42 11.08Q44.63 10.43 46.16 10.43L46.16 10.43L46.16 10.43Q46.63 10.43 47.15 10.54L47.15 10.54L47.15 10.54Q47.29 11.03 47.28 11.61L47.28 11.61L47.28 11.61Q47.59 11.49 47.88 11.49L47.88 11.49ZM45.12 17.74L45.12 17.74Q45.93 17.74 46.47 17.09L46.47 17.09L46.47 17.09Q47.01 16.45 47.15 15.32L47.15 15.32L47.15 15.32Q46.09 14.73 46.09 13.52L46.09 13.52L46.09 13.52Q46.09 12.92 46.35 12.44L46.35 12.44L46.35 12.44Q46.62 11.96 47.07 11.70L47.07 11.70L47.07 11.70Q46.03 11.76 45.25 12.29L45.25 12.29L45.25 12.29Q44.46 12.81 44.04 13.66L44.04 13.66L44.04 13.66Q43.61 14.50 43.61 15.53L43.61 15.53L43.61 15.53Q43.61 16.67 44.01 17.21L44.01 17.21L44.01 17.21Q44.41 17.74 45.12 17.74L45.12 17.74Z"></path></g><!----><!----></svg>